<?xml version="1.0" standalone="no"?>
<!DOCTYPE svg PUBLIC "-//W3C//DTD SVG 20010904//EN"
 "http://www.w3.org/TR/2001/REC-SVG-20010904/DTD/svg10.dtd">
<svg version="1.0" xmlns="http://www.w3.org/2000/svg"
 width="327.000000pt" height="154.000000pt" viewBox="0 0 327.000000 154.000000"
 preserveAspectRatio="xMidYMid meet">

<g transform="translate(0.000000,154.000000) scale(0.100000,-0.100000)"
fill="#000000" stroke="none">
<path d="M1079 1420 l-44 -30 -433 0 c-360 0 -438 -2 -461 -15 -31 -15 -45
-40 -34 -57 3 -7 1 -8 -5 -4 -9 5 -12 -118 -12 -494 l0 -502 29 -29 29 -29
301 0 300 0 6 -37 c12 -70 14 -68 9 4 -10 136 27 367 86 543 59 178 169 378
271 495 63 73 84 85 35 20 -76 -99 -203 -346 -260 -505 -32 -88 -86 -277 -86
-299 0 -9 12 -1 31 22 17 20 50 49 75 63 29 17 65 54 104 107 32 45 56 83 51
85 -4 1 -36 -6 -71 -17 -35 -11 -66 -19 -67 -17 -2 2 39 23 90 46 l94 43 46
81 c62 109 95 186 118 275 31 121 21 191 -36 248 -45 45 -103 46 -166 3z
m-126 -127 c-108 -152 -211 -396 -200 -477 4 -25 2 -35 -3 -26 -11 17 -14 14
-27 -26 -7 -20 -7 -36 -1 -48 5 -10 7 -20 4 -23 -3 -4 -6 -1 -6 5 0 7 -4 12
-10 12 -5 0 -10 -7 -10 -15 0 -8 -4 -15 -9 -15 -16 0 -31 27 -26 46 4 11 -1 7
-10 -8 l-16 -28 -239 0 c-141 0 -241 4 -245 10 -3 5 -12 7 -19 4 -18 -7 -30
578 -12 616 22 49 32 50 473 50 l412 0 -56 -77z"/>
<path d="M681 724 c0 -11 3 -14 6 -6 3 7 2 16 -1 19 -3 4 -6 -2 -5 -13z"/>
<path d="M1204 766 c-51 -23 -74 -61 -74 -122 0 -65 23 -96 122 -161 84 -56
108 -85 108 -133 0 -54 -36 -85 -102 -85 -44 0 -53 4 -84 37 -20 22 -34 48
-34 63 0 14 -4 25 -10 25 -6 0 -10 -30 -10 -70 0 -63 11 -91 23 -57 3 9 13 9
50 -1 71 -18 119 -15 158 11 69 46 86 131 40 196 -12 16 -57 52 -100 80 -91
58 -121 91 -121 133 0 92 147 108 192 20 25 -51 28 -50 28 9 l0 54 -32 1 c-18
0 -53 4 -78 8 -30 4 -55 2 -76 -8z"/>
<path d="M1674 762 c-94 -33 -153 -101 -175 -198 -29 -128 57 -270 183 -305
26 -6 51 -25 80 -61 63 -74 109 -100 189 -106 39 -3 74 0 85 6 16 10 12 11
-25 12 -55 0 -97 26 -152 91 -41 49 -41 50 -19 56 86 23 159 96 186 189 35
121 -33 260 -152 310 -58 24 -143 27 -200 6z m176 -22 c75 -38 116 -137 108
-258 -11 -151 -115 -245 -236 -212 -91 24 -143 101 -150 221 -5 84 6 133 44
191 47 74 153 99 234 58z"/>
<path d="M2080 771 c0 -5 10 -11 23 -13 l22 -3 0 -235 0 -234 -25 -13 c-21
-11 2 -13 148 -13 l172 0 0 36 0 37 -24 -26 c-13 -14 -40 -29 -61 -33 -47 -9
-116 1 -126 18 -5 7 -9 111 -9 230 0 207 1 218 20 230 35 22 22 28 -60 28 -44
0 -80 -4 -80 -9z"/>
<path d="M2516 671 c-10 -16 5 -41 24 -41 25 0 35 18 20 35 -14 17 -36 20 -44
6z"/>
<path d="M2747 602 c-10 -18 -32 -42 -50 -52 l-32 -20 28 0 27 0 0 -123 c0
-146 7 -163 64 -154 38 6 106 50 106 68 0 5 -18 -2 -39 -17 -69 -45 -76 -37
-79 104 l-3 122 41 0 c22 0 40 5 40 10 0 6 -18 10 -39 10 -40 0 -40 0 -43 43
l-3 42 -18 -33z"/>
<path d="M2523 546 c-53 -14 -65 -26 -26 -26 40 0 43 -10 43 -128 0 -104 -4
-117 -35 -125 -11 -2 16 -5 60 -4 44 0 70 2 57 4 -13 3 -26 11 -28 18 -3 7 -6
70 -7 141 -1 75 -6 128 -12 130 -5 1 -29 -3 -52 -10z"/>
<path d="M3025 546 c-82 -37 -119 -151 -76 -234 41 -80 165 -86 211 -10 29 48
25 54 -15 19 -27 -24 -45 -31 -76 -31 -47 0 -89 35 -89 74 0 21 7 27 53 40 49
15 127 72 127 94 0 6 -8 19 -17 31 -23 27 -79 35 -118 17z m46 -26 c28 -16 25
-65 -5 -85 -27 -18 -87 -37 -94 -30 -10 10 22 97 42 110 24 18 31 18 57 5z"/>
<path d="M771 134 c0 -11 3 -14 6 -6 3 7 2 16 -1 19 -3 4 -6 -2 -5 -13z"/>
</g>
</svg>
